<svg xmlns="http://www.w3.org/2000/svg" viewBox="0 0 560 132">
  <title>Diagram showing each of a pair of particles being transmitted to observers Alice and Bob.</title>

  <g fill="none" fill-rule="evenodd">
    <g stroke="#6D7278" stroke-linecap="square">
      <path d="M48.40001 48.669067v44M61.40001 74.669067l-26-8"/>
    </g>
    <path d="M24.90000998 24.34456202v76.29538768L71.90001 114.9935718V38.6981841L24.90000998 24.34456202z" stroke="#333"/>
    <text font-size="11" font-weight="bold" transform="translate(24 23)">
      <tspan x="3.40000998" y="45.6690669">0</tspan>
    </text>
    <text font-size="11" font-weight="bold" transform="translate(24 23)">
      <tspan x="21.40001" y="81.6690669">0</tspan>
    </text>
    <text font-size="11" font-weight="bold" transform="translate(24 23)">
      <tspan x="21.40001" y="21.6690669">1</tspan>
    </text>
    <text font-size="11" font-weight="bold" transform="translate(24 23)">
      <tspan x="39.40001" y="55.6690669">1</tspan>
    </text>
    <g stroke="#6D7278" stroke-linecap="square">
      <path d="M511.59999 48.669067v44M498.59999 74.669067l26-8"/>
    </g>
    <path d="M535.09999002 24.34456202v76.29538768L488.09999 114.9935718V38.6981841l47.00000002-14.35362208z" stroke="#333"/>
    <text font-size="11" font-weight="bold" transform="translate(487 23)">
      <tspan x="3" y="55.6690669">0</tspan>
    </text>
    <text font-size="11" font-weight="bold" transform="translate(487 23)">
      <tspan x="21" y="81.6690669">0</tspan>
    </text>
    <text font-size="11" font-weight="bold" transform="translate(487 23)">
      <tspan x="21" y="21.6690669">1</tspan>
    </text>
    <text font-size="11" font-weight="bold" transform="translate(487 23)">
      <tspan x="39" y="46.6690669">1</tspan>
    </text>
    <path stroke="#333" fill="#A72828" d="M97.5 32.5h61v23h-61zM401.5 32.5h61v23h-61z"/>
    <path stroke="#333" fill="#28A745" d="M97.5 86.5h61v23h-61zM401.5 86.5h61v23h-61z"/>
    <text font-size="14" font-weight="bold">
      <tspan x="112" y="24">Alice</tspan>
    </text>
    <text font-size="14" font-weight="bold">
      <tspan x="195.5615" y="93">Source of</tspan> <tspan x="184.1445" y="110">particle pairs</tspan>
    </text>
    <text font-size="14" font-weight="bold">
      <tspan x="419" y="24">Bob</tspan>
    </text>
    <g opacity=".5" stroke="#2684FF" stroke-linecap="square">
      <path d="M145.5 70.5h268M48.5 47.5l97 23M48.5 93.5l97-23M511.5 47.5l-97 23M511.5 93.5l-97-23"/>
    </g>
    <circle stroke="#144079" stroke-width="2" fill-opacity=".5" fill="#2684FF" cx="219.5" cy="70.5" r="5.5"/>
  </g>
</svg>
