<svg width="40" height="21" xmlns="http://www.w3.org/2000/svg">
  <g fill="none" fill-rule="evenodd" stroke="#000">
    <path d="M7 12C7 5.92486157 14.1634498 1 23 1c8.8365598 0 16.0000168 4.92486157 16.0000168 11" stroke-width="1.5"/>
    <path d="M32 2.49999809c0-.81751775 1.3092748-1.48448628 2.9440284-1.49973562 1.4747371-.01375328 2.7507001.5105381 3.009449 1.23660135.3156582.88577404-.9884473 1.71026226-2.7850694 1.76076069M25.9090587 7.47369525c-1.6110826-.6307725-2.855108-1.6462429-3.0690958-2.50522852-.3046715-1.22300873 1.5545116-1.63931396 3.8789135-.86854086M33.6165066 6.27449186c.032042.3670851-.585946.72290545-1.390103.80035629-.721232.06947066-1.3679254-.10813975-1.5295142-.42007284M7 10.9999999c0 1.104567 7.1634498 2 16 2 8.8365598 0 16.0000168-.895433 16.0000168-2" stroke-width="1.5"/>
    <path d="M7.74408127 11.5c-3.11633002.6706536-6.23264666 1.3413071-4.94698488 2.4708292 1.28566193 1.1295213 10.21539211 3.6474104 12.66092761 4.3063017 2.4455355.6588914 2.0123308-.3529756 2.0123308-.3529756" stroke-width="4"/>
    <path d="M37.9884645 11.7912912c-.4668372-.4184629-.745822-.8978174-.6491475-1.11536.1117273-.2514106.6757577-.0574029 1.2205156.4197896" stroke-width="1.5"/>
  </g>
</svg>
