<svg xmlns="http://www.w3.org/2000/svg" xmlns:xlink="http://www.w3.org/1999/xlink" viewBox="0 0 266 190">
  <defs>
    <path d="M-1 47.14l258 145.48H-1V47.14z" id="a"/>
    <path d="M170.75 85.83c-.67 1.18-6.02 10.66-6.69 11.85-.87 1.49-.49 2.71.83 3.46 1.72.97 15.48 8.73 17.2 9.71 3.71 2.09 5.53 5.83 4.08 8.39-.78 1.39-7.06 12.51-7.85 13.9-1.07 1.9-3.63 2.6-6.4 1.97.34-.42.64-.86.9-1.33 2.66-4.71 1-10.69-3.71-13.35-4.72-2.66-10.7-1-13.36 3.71-.33.6-.61 1.23-.81 1.89-.79-.45-4.76-2.69-11.91-6.72l-9.95-5.62c-5.41-3.05-8.41-4.75-9.01-5.09.46-.51.86-1.07 1.2-1.66 2.66-4.72 1-10.7-3.72-13.36-4.64-2.62-10.53-1.04-13.25 3.55-.61-2.58-.13-5.8 1.56-8.79 1.58-2.8 14.21-25.17 15.79-27.97 2.9-5.14 8.22-7.6 11.93-5.51 2.12 1.2 12.69 7.17 31.72 17.91 2.9 5.28 3.39 9.63 1.45 13.06zm-35.6-24.11c-1.98-1.12-4.32-.68-5.26.97l-6.6 11.7c-.94 1.66-.1 3.89 1.88 5.01.4.22 3.61 2.04 4.02 2.26 1.97 1.12 4.32.69 5.25-.97.66-1.17 5.94-10.53 6.61-11.7.93-1.66.09-3.89-1.88-5-.81-.46-3.62-2.05-4.02-2.27zm15.32 8.8c-1.41-.79-3.42.12-4.51 2.04-.59 1.05-5.32 9.42-5.91 10.47-1.09 1.92-.83 4.11.58 4.91 1.37.77 12.32 6.95 13.69 7.72 1.41.8 3.42-.11 4.5-2.03.59-1.05 5.32-9.43 5.91-10.47 1.09-1.93.83-4.12-.58-4.91-2.74-1.55-12.32-6.95-13.68-7.73zm27.71 45.26c-1.03 1.82-.39 4.14 1.44 5.17 1.83 1.03 4.14.39 5.17-1.44 1.03-1.83.39-4.14-1.44-5.17-1.82-1.03-4.14-.39-5.17 1.44zm-69.79-18.32c-.03-.1-.06-.21-.09-.32.03.11.06.22.09.32zm.49 1.31c-.15-.31-.27-.63-.38-.96.11.33.23.65.38.96zm.3.54c-.04-.07-.09-.15-.13-.22.04.07.09.15.13.22zm.19.29c-.04-.06-.08-.12-.12-.19.04.07.08.13.12.19zm.21.3c-.04-.06-.09-.13-.13-.19.04.06.09.13.13.19zm61.99 35.13c.12.03.23.05.34.08-.11-.03-.22-.05-.34-.08zm-61.68-34.77c-.08-.09-.15-.18-.23-.27.08.09.15.18.23.27zm61.34 34.67c.11.03.21.06.32.09-.11-.03-.21-.06-.32-.09zm-.39-.13c.12.04.23.08.35.12-.12-.04-.23-.08-.35-.12zm-60.69-34.27c-.04-.04-.08-.07-.12-.11.04.04.08.07.12.11zm60.34 34.14c.12.05.23.09.34.13-.11-.04-.22-.08-.34-.13zm-60.07-33.9c-.04-.03-.08-.07-.12-.1.04.03.08.07.12.1zm59.78 33.79c.09.03.18.07.27.1-.09-.03-.18-.07-.27-.1zM110.7 101l-.12-.09.12.09zm.3.21c-.04-.02-.07-.05-.1-.07.03.02.06.05.1.07z" id="c"/>
    <path d="M171.83 133.22c-2.35 4.16-7.63 5.63-11.8 3.28-4.16-2.35-5.63-7.63-3.28-11.79 2.35-4.17 7.63-5.64 11.79-3.29 4.17 2.35 5.64 7.63 3.29 11.8zm-11.43-6.45c-1.21 2.14-.46 4.87 1.69 6.08 2.15 1.22 4.88.46 6.09-1.69s.45-4.87-1.7-6.09c-2.14-1.21-4.87-.45-6.08 1.7z" id="d"/>
    <path d="M180.38 124.92c-.5-.29-1.22.04-1.61.72-.21.38-1.9 3.37-2.11 3.74-.39.69-.29 1.47.21 1.75.49.28 4.39 2.49 4.88 2.76.51.29 1.22-.04 1.61-.73.21-.37 1.9-3.36 2.11-3.73.39-.69.3-1.47-.21-1.76-.97-.55-4.39-2.48-4.88-2.75z" id="e"/>
    <path d="M109.54 86.49c-.31-.18-.76.02-1 .45-.13.23-1.17 2.08-1.3 2.31-.24.43-.18.91.13 1.09.3.17 2.72 1.53 3.02 1.7.31.18.76-.02 1-.45.13-.23 1.17-2.08 1.3-2.31.24-.42.18-.91-.13-1.08 0 0-2.72-1.54-3.02-1.71z" id="f"/>
    <path d="M124.27 106.37c-2.35 4.17-7.63 5.64-11.79 3.29-4.17-2.35-5.64-7.63-3.29-11.8 2.35-4.16 7.64-5.63 11.8-3.28 4.16 2.35 5.63 7.63 3.28 11.79zm-11.43-6.45c-1.21 2.15-.45 4.87 1.7 6.09 2.15 1.21 4.87.45 6.08-1.7 1.22-2.15.46-4.87-1.69-6.08-2.15-1.22-4.87-.46-6.09 1.69z" id="g"/>
    <clipPath id="b">
      <use xlink:href="#a"/>
    </clipPath>
  </defs>
  <use xlink:href="#a" fill="#28a745" fill-opacity=".15"/>
  <g clip-path="url(#b)">
    <use xlink:href="#a" fill-opacity="0" stroke="#333" stroke-width="2"/>
  </g>
  <g fill="#333">
    <use xlink:href="#c" />
    <use xlink:href="#c" fill-opacity="0" stroke="#333" stroke-width="6.35" stroke-opacity="0"/>
    <use xlink:href="#d" />
    <use xlink:href="#d" fill-opacity="0" stroke="#333" stroke-width="5.14" stroke-opacity="0"/>
    <use xlink:href="#e" />
    <use xlink:href="#e" fill-opacity="0" stroke="#333" stroke-width=".23" stroke-opacity="0"/>
    <g>
      <use xlink:href="#f" />
      <use xlink:href="#f" fill-opacity="0" stroke="#333" stroke-width=".14" stroke-opacity="0"/>
    </g>
    <g>
      <use xlink:href="#g" />
      <use xlink:href="#g" fill-opacity="0" stroke="#333" stroke-width="5.14" stroke-opacity="0"/>
    </g>
  </g>
</svg>
